<svg xmlns="http://www.w3.org/2000/svg" width="17.055" height="10.899" viewBox="0 0 17.055 10.899">
    <g data-name="그룹 18837">
        <path data-name="패스 7916" d="M8.528 10.9C3.861 10.9 0 7.291 0 5.449S3.861 0 8.528 0s8.527 3.608 8.527 5.449-3.86 5.45-8.527 5.45m0-9.9C4.209 1 1 4.407 1 5.449S4.209 9.9 8.528 9.9s7.527-3.407 7.527-4.45S12.847 1 8.528 1" style="fill:#191919"/>
        <path data-name="패스 7917" d="M8.528 8.692a3.243 3.243 0 1 1 3.243-3.243 3.247 3.247 0 0 1-3.243 3.243m0-5.486a2.243 2.243 0 1 0 2.243 2.243 2.245 2.245 0 0 0-2.243-2.243" style="fill:#191919"/>
    </g>
</svg>
