<svg xmlns="http://www.w3.org/2000/svg" width="17.055" height="14.545" viewBox="0 0 17.055 14.545">
    <g data-name="그룹 18836">
        <path data-name="패스 7918" d="M17.055 7.272c0-1.841-3.861-5.449-8.528-5.449a9.883 9.883 0 0 0-3.9.84L1.962 0l-.707.707 13.838 13.838.707-.707-2.421-2.421c2.209-1.217 3.676-3.017 3.676-4.145M8.527 2.823c4.319 0 7.528 3.407 7.528 4.449 0 .669-1.334 2.3-3.425 3.4l-1.5-1.5a3.185 3.185 0 0 0 .642-1.894 3.247 3.247 0 0 0-3.245-3.249 3.185 3.185 0 0 0-1.894.642L5.4 3.435a8.629 8.629 0 0 1 3.13-.612m1.889 5.631L7.345 5.383a2.2 2.2 0 0 1 1.182-.354 2.245 2.245 0 0 1 2.243 2.243 2.2 2.2 0 0 1-.354 1.182" style="fill:#191919"/>
        <path data-name="패스 7919" d="M8.527 11.722C4.208 11.722 1 8.315 1 7.272c0-.549.895-1.751 2.367-2.768l-.73-.731C1.019 4.922 0 6.328 0 7.272c0 1.842 3.86 5.45 8.527 5.45a9.574 9.574 0 0 0 2.667-.392l-.823-.822a8.373 8.373 0 0 1-1.844.214" style="fill:#191919"/>
        <path data-name="패스 7920" d="M9.282 10.418 8.363 9.5A2.233 2.233 0 0 1 6.3 7.437l-.919-.919a3.21 3.21 0 0 0 3.9 3.9" style="fill:#191919"/>
    </g>
</svg>
